<?xml version="1.0" standalone="no"?><!DOCTYPE svg PUBLIC "-//W3C//DTD SVG 1.1//EN" "http://www.w3.org/Graphics/SVG/1.1/DTD/svg11.dtd"><svg t="1553333972890" class="icon" style="" viewBox="0 0 1024 1024" version="1.1" xmlns="http://www.w3.org/2000/svg" p-id="6767" xmlns:xlink="http://www.w3.org/1999/xlink" width="200" height="200"><defs><style type="text/css"></style></defs><path d="M517.651847 205.236789c83.279761 0 158.845569 33.175932 213.412514 88.208745h0.307165c54.728718 54.749196 88.495433 130.419441 88.495433 213.699202 0 82.955189-33.766714 158.948982-88.495433 213.6777h-0.307165l-0.565185 0.87235c-54.587422 54.179916-129.870638 87.664038-212.847329 87.664038-83.686243 0-159.215192-33.484122-213.818996-88.536388l-0.448462-0.851873c-54.728718-54.462508-88.657206-129.870638-88.657206-212.825827 0-83.279761 33.928488-158.948982 89.105668-213.699202l1.600332-2.028317c54.423601-53.590158 129.566545-86.180428 212.218664-86.180428zM254.502056 739.186843l-57.225975 57.629386c-8.299614 8.445006-8.299614 22.122066 0 30.27936 8.564801 8.743981 22.259267 8.743981 30.579359 0l57.043723-57.346793c8.461388-7.875726 8.461388-22.138448 0-30.561953-8.280161-7.870606-21.815925-7.870606-30.397107 0z m495.333194 30.562977l57.22188 57.346793c8.748076 8.136817 22.384181 8.136817 30.541475-0.56928 8.481866-7.854224 8.481866-21.265074 0-29.710081l-57.185019-57.629385c-8.560705-7.87163-21.835378-7.87163-30.579359 0-8.418385 8.423505-8.135793 22.686227 0.001023 30.561953z m-253.998304 87.622058c0-12.218024 9.616331-21.531284 21.813877-21.531284 11.832019 0 21.40637 9.313261 21.406371 21.531284v80.944279c0 11.931336-9.575376 21.531284-21.406371 21.531284-12.197546 0-21.813877-9.599949-21.813877-21.531284v-80.944279zM166.858496 485.309357c11.931336 0 21.668485 9.903019 21.668485 21.835379 0 11.931336-9.737149 21.248692-21.668485 21.248692h-80.968852c-12.052154 0-21.365415-9.317356-21.365415-21.248692s9.313261-21.835378 21.365415-21.835379h80.968852z m118.039643-241.356392l-57.043723-57.080583c-8.320092-9.010191-22.013534-9.010191-30.579359 0-8.299614 8.158318-8.299614 21.835378 0 30.317245l57.225975 57.326315c8.582207 8.743981 22.117971 8.743981 30.396084 0 8.462412-8.137841 8.462412-21.835378 0.001023-30.562977zM867.612779 528.393428c-11.628266 0-21.265074-9.317356-21.265074-21.248692s9.637833-21.835378 21.265074-21.835379h81.106052c11.935431 0 21.531284 9.903019 21.531285 21.835379 0 11.931336-9.595853 21.248692-21.531285 21.248692H867.612779z m-87.198169-253.87851l57.185019-57.326315c8.481866-8.481866 8.481866-22.158926 0-30.014175-8.157294-8.723503-21.793399-9.313261-30.541476-0.30307l-57.221879 57.080583c-8.136817 8.727599-8.419409 22.425136 0 30.561953 8.742957 8.745005 22.016606 8.745005 30.578336 0.001024zM539.058217 156.617595c0 12.234406-9.575376 21.244597-21.40637 21.244596-12.197546 0-21.813877-9.010191-21.813877-21.244596V75.973315c0-12.255907 9.616331-21.851761 21.813877-21.851761 11.832019 0 21.40637 9.595853 21.40637 21.851761v80.64428z m141.357608 188.069304c-41.641416-41.924009-99.412098-68.143664-162.765002-68.143664-62.865535 0-119.947142 25.059593-161.709376 65.525589l-1.604429 2.618075c-41.641416 41.06804-67.391108 98.984114-67.391108 162.456813 0 63.738909 25.749692 121.388772 67.391108 162.743501v0.87235c41.924009 41.051658 99.574896 66.96722 163.312781 66.96722 63.351881 0 121.122562-25.915561 162.765003-66.96722v-0.87235c41.658822-41.354728 67.41261-99.005615 67.412609-162.743501 0.001024-63.471675-25.752764-121.387749-67.411586-162.456813z" fill="#E60012" p-id="6768"></path></svg>