<?xml version="1.0" standalone="no"?><!DOCTYPE svg PUBLIC "-//W3C//DTD SVG 1.1//EN" "http://www.w3.org/Graphics/SVG/1.1/DTD/svg11.dtd"><svg t="1553331729960" class="icon" style="" viewBox="0 0 1024 1024" version="1.1" xmlns="http://www.w3.org/2000/svg" p-id="6425" xmlns:xlink="http://www.w3.org/1999/xlink" width="200" height="200"><defs><style type="text/css"></style></defs><path d="M511.631 510.91m-445.605 0a445.605 445.605 0 1 0 891.21 0 445.605 445.605 0 1 0-891.21 0Z" fill="#6DD6AC" p-id="6426"></path><path d="M531.51 608.467c5.294-5.215 5.43-13.712 0.304-19.093-5.217-5.182-13.596-5.316-18.977-0.304l-41.938 40.852c-0.475 0.46-0.911 0.959-1.304 1.492l-63.841-39.533 42.923-29.422c6.119-4.229 7.695-12.594 3.535-18.76a13.412 13.412 0 0 0-18.643-3.549l-48.254 33.072a13.105 13.105 0 0 0-3.607 3.752l-47.298-29.277c23.845-11.126 77.676-39.475 120.99-85.832 30.479 17.731 126.393 73.17 167.288 92.915-12.835 34.362-36.506 83.065-77.14 123.163a36.262 36.262 0 0 1-5.287-2.767l-47.226-29.248 38.475-37.461z m110.009-123.178c-0.015 0.174-2.477 18.6-10.966 46.313-39.446-19.383-129.537-71.345-159.089-88.497a229.562 229.562 0 0 0 25.931-41.358c0.985 0.246 2.448 0.753 4.433 1.738 12.473 6.287 106.388 53.86 134.926 68.318l4.694 2.376c0.332 1.81 0.636 5.258 0.071 11.11z m15.631-30.276l-65.363-33.217 36.607-72.562c5.117-5.239 5.169-13.589 0.116-18.89-5.217-5.182-13.596-5.316-18.977-0.304L569 410.251l-56.352-28.509c-6.041-3.042-11.72-4.578-16.862-4.578-9.315 0-15.384 4.867-18.007 9.474l-0.478 0.927C435.87 478.887 316.285 529.198 315.039 529.72c-5.215 2.303-8.895 6.388-10.372 11.488-2.419 8.359 2.158 15.834 3.1 17.253l1.463 2.202 218.382 135.245c7.678 4.723 14.226 7.026 19.991 7.026 5.505 0 8.909-2.115 10.488-3.433l0.608-0.536c78.965-75.213 104.389-185.787 106.88-211.283 2.117-21.877-4.315-29.816-8.429-32.669z" fill="#FFFFFF" p-id="6427"></path></svg>