<?xml version="1.0" standalone="no"?><!DOCTYPE svg PUBLIC "-//W3C//DTD SVG 1.1//EN" "http://www.w3.org/Graphics/SVG/1.1/DTD/svg11.dtd"><svg t="1552555149195" class="icon" style="" viewBox="0 0 1024 1024" version="1.1" xmlns="http://www.w3.org/2000/svg" p-id="7258" xmlns:xlink="http://www.w3.org/1999/xlink" width="200" height="200"><defs><style type="text/css"></style></defs><path d="M160.4 908.8c-22.7 0-41.1-18-41.7-40.4l81.8-457.2V410c0-22.9 18.7-41.5 41.8-41.5h674.5c22.6 0 41.1 18 41.8 40.4l-81.8 457.2v1.2c0 22.9-18.7 41.5-41.8 41.5H160.4z" fill="#F5A623" p-id="7259"></path><path d="M200.6 313.4h654.5v-64.8c0-29.4-22.1-53.2-49.4-53.2H435.3l-74.1-79.8h-247c-27.3 0-49.4 23.8-49.4 53.2v638.3l80.8-440.4c0.1-29.4 24.8-53.3 55-53.3" fill="#F5A623" p-id="7260"></path></svg>