<?xml version="1.0" standalone="no"?><!DOCTYPE svg PUBLIC "-//W3C//DTD SVG 1.1//EN" "http://www.w3.org/Graphics/SVG/1.1/DTD/svg11.dtd"><svg t="1552555024951" class="icon" style="" viewBox="0 0 1024 1024" version="1.1" xmlns="http://www.w3.org/2000/svg" p-id="1681" xmlns:xlink="http://www.w3.org/1999/xlink" width="200" height="200"><defs><style type="text/css"></style></defs><path d="M1013.106383 174.297872v849.702128H10.893617V0h827.914894z" fill="#424A60" p-id="1682"></path><path d="M163.404255 566.468085h675.404256v457.531915h-675.404256z" fill="#E7ECED" p-id="1683"></path><path d="M163.404255 566.468085h675.404256v262.252936h-675.404256z" fill="#EBBA16" p-id="1684"></path><path d="M206.978723 0h566.468086v348.595745h-566.468086z" fill="#C7CAC7" p-id="1685"></path><path d="M272.340426 675.404255h152.510638a21.787234 21.787234 0 1 0 0-43.574468h-152.510638a21.787234 21.787234 0 1 0 0 43.574468zM490.212766 718.978723h-217.87234a21.787234 21.787234 0 1 0 0 43.574468h217.87234a21.787234 21.787234 0 1 0 0-43.574468zM571.043404 725.297021c-8.061277-8.061277-22.658723-8.061277-30.72 0a21.700085 21.700085 0 0 0-6.53617 15.468936c0 5.882553 2.374809 11.329362 6.318298 15.468937 4.117787 3.921702 9.564596 6.318298 15.468936 6.318297 5.882553 0 11.329362-2.396596 15.468936-6.318297 3.921702-4.139574 6.318298-9.804255 6.318298-15.468937s-2.396596-11.351149-6.318298-15.468936z" fill="#FFFFFF" p-id="1686"></path><path d="M533.787234 348.595745h-326.808511V0h152.510639z" fill="#E7ECED" p-id="1687"></path></svg>